<?xml version="1.0" standalone="yes"?>

<svg version="1.1" viewBox="0.0 0.0 960.0 960.0" fill="none" stroke="none" stroke-linecap="square" stroke-miterlimit="10" xmlns="http://www.w3.org/2000/svg" xmlns:xlink="http://www.w3.org/1999/xlink"><clipPath id="p.0"><path d="m0 0l960.0 0l0 960.0l-960.0 0l0 -960.0z" clip-rule="nonzero"></path></clipPath><g clip-path="url(#p.0)"><path fill="#000000" fill-opacity="0.0" d="m0 0l960.0 0l0 960.0l-960.0 0z" fill-rule="evenodd"></path><defs><radialGradient id="p.1" gradientUnits="userSpaceOnUse" gradientTransform="matrix(23.74504455140128 0.0 0.0 -23.74504455140128 0.0 0.0)" spreadMethod="pad" cx="20.21457567539808" cy="-27.907850766875082" fx="20.21457567539808" fy="-27.907850766875082" r="23.745044708251953"><stop offset="0.0" stop-color="#ffffff"></stop><stop offset="1.0" stop-color="#b3b3b3"></stop></radialGradient></defs><path fill="url(#p.1)" d="m98.600395 958.4724l762.7992 0c26.150452 0 51.22986 -10.388184 69.72101 -28.879333c18.49115 -18.49121 28.879395 -43.570557 28.879395 -69.72101l0 -492.99017c0 -0.004425049 -0.0036010742 -0.0079956055 -0.0079956055 -0.0079956055l-959.992 0.0079956055l1.3780371E-18 0c-0.004418278 0 -0.008 0.0035705566 -0.008 0.0079956055l0.008 492.98218l0 0c0 54.455444 44.1449 98.60034 98.600395 98.60034z" fill-rule="evenodd"></path><defs><linearGradient id="p.2" gradientUnits="userSpaceOnUse" gradientTransform="matrix(19.154049545753438 0.0 0.0 19.154049545753438 0.0 0.0)" spreadMethod="pad" x1="-6.917247924260126E-4" y1="-1.8143522275378027E-4" x2="-7.610622376097157E-4" y2="19.15386811040518"><stop offset="0.0" stop-color="#8c8c8c"></stop><stop offset="1.0" stop-color="#404040"></stop></linearGradient></defs><path fill="url(#p.2)" d="m61.14033 0l837.70886 0c16.216797 0 31.76941 6.4421053 43.23645 17.909126c11.467041 11.46702 17.909119 27.019638 17.909119 43.236454l0 305.72058c0 0.004425049 -0.0036010742 0.0079956055 -0.0079956055 0.0079956055l-959.992 -0.0079956055l0 0c-0.004418278 0 -0.008 -0.0036010742 -0.008 -0.0079956055l0.008 -305.7126l0 0c0 -33.76977 27.375809 -61.14558 61.14558 -61.14558z" fill-rule="evenodd"></path><path stroke="#666666" stroke-width="1.0" stroke-linejoin="round" stroke-linecap="butt" d="m61.14033 0l837.70886 0c16.216797 0 31.76941 6.4421053 43.23645 17.909126c11.467041 11.46702 17.909119 27.019638 17.909119 43.236454l0 305.72058c0 0.004425049 -0.0036010742 0.0079956055 -0.0079956055 0.0079956055l-959.992 -0.0079956055l0 0c-0.004418278 0 -0.008 -0.0036010742 -0.008 -0.0079956055l0.008 -305.7126l0 0c0 -33.76977 27.375809 -61.14558 61.14558 -61.14558z" fill-rule="evenodd"></path><defs><radialGradient id="p.3" gradientUnits="userSpaceOnUse" gradientTransform="matrix(11.945030673547672 0.0 0.0 11.945030673547672 0.0 0.0)" spreadMethod="pad" cx="64.17883144778355" cy="11.549076097976858" fx="64.17883144778355" fy="11.549076097976858" r="11.945030212402344"><stop offset="0.0" stop-color="#696969"></stop><stop offset="1.0" stop-color="#1d1d1d"></stop></radialGradient></defs><path fill="url(#p.3)" d="m666.4921 69.67652l0 0c0 -18.433056 14.942932 -33.375996 33.375977 -33.375996l133.5 0l0 0c8.851868 0 17.341187 3.516388 23.600403 9.7756c6.2592163 6.2592163 9.775574 14.748531 9.775574 23.600395l0 136.55508c0 18.43306 -14.942932 33.37599 -33.375977 33.37599l-133.5 0c-18.433044 0 -33.375977 -14.942932 -33.375977 -33.37599z" fill-rule="evenodd"></path><path stroke="#434343" stroke-width="1.0" stroke-linejoin="round" stroke-linecap="butt" d="m666.4921 69.67652l0 0c0 -18.433056 14.942932 -33.375996 33.375977 -33.375996l133.5 0l0 0c8.851868 0 17.341187 3.516388 23.600403 9.7756c6.2592163 6.2592163 9.775574 14.748531 9.775574 23.600395l0 136.55508c0 18.43306 -14.942932 33.37599 -33.375977 33.37599l-133.5 0c-18.433044 0 -33.375977 -14.942932 -33.375977 -33.37599z" fill-rule="evenodd"></path><defs><radialGradient id="p.4" gradientUnits="userSpaceOnUse" gradientTransform="matrix(11.185326003231038 0.0 0.0 11.185326003231038 0.0 0.0)" spreadMethod="pad" cx="68.53788167727834" cy="12.333495176145242" fx="68.53788167727834" fy="12.333495176145242" r="11.185325622558594"><stop offset="0.0" stop-color="#dddddd"></stop><stop offset="1.0" stop-color="#919191"></stop></radialGradient></defs><path fill="url(#p.4)" d="m677.1991 137.95416l0 0c0 -48.32746 40.034485 -87.504616 89.41943 -87.504616l0 0c23.715515 0 46.459717 9.219208 63.229126 25.629509c16.769348 16.410301 26.190308 38.667442 26.190308 61.875107l0 0c0 48.32747 -40.034424 87.50462 -89.41943 87.50462l0 0c-49.38495 0 -89.41943 -39.177155 -89.41943 -87.50462z" fill-rule="evenodd"></path><path stroke="#999999" stroke-width="1.0" stroke-linejoin="round" stroke-linecap="butt" d="m677.1991 137.95416l0 0c0 -48.32746 40.034485 -87.504616 89.41943 -87.504616l0 0c23.715515 0 46.459717 9.219208 63.229126 25.629509c16.769348 16.410301 26.190308 38.667442 26.190308 61.875107l0 0c0 48.32747 -40.034424 87.50462 -89.41943 87.50462l0 0c-49.38495 0 -89.41943 -39.177155 -89.41943 -87.50462z" fill-rule="evenodd"></path><defs><radialGradient id="p.5" gradientUnits="userSpaceOnUse" gradientTransform="matrix(10.447421789477254 0.0 0.0 10.447421789477254 0.0 0.0)" spreadMethod="pad" cx="73.37873071262227" cy="13.204706641973896" fx="73.37873071262227" fy="13.204706641973896" r="10.44742202758789"><stop offset="0.0" stop-color="#8c8c8c"></stop><stop offset="1.0" stop-color="#404040"></stop></radialGradient></defs><path fill="url(#p.5)" d="m689.07104 137.95514l0 0c0 -42.421097 34.719177 -76.810196 77.547485 -76.810196l0 0c20.566895 0 40.29138 8.0924835 54.83441 22.497185c14.542969 14.404709 22.713135 33.94168 22.713135 54.31301l0 0c0 42.421097 -34.71924 76.810196 -77.54755 76.810196l0 0c-42.82831 0 -77.547485 -34.3891 -77.547485 -76.810196z" fill-rule="evenodd"></path><path stroke="#434343" stroke-width="1.0" stroke-linejoin="round" stroke-linecap="butt" d="m689.07104 137.95514l0 0c0 -42.421097 34.719177 -76.810196 77.547485 -76.810196l0 0c20.566895 0 40.29138 8.0924835 54.83441 22.497185c14.542969 14.404709 22.713135 33.94168 22.713135 54.31301l0 0c0 42.421097 -34.71924 76.810196 -77.54755 76.810196l0 0c-42.82831 0 -77.547485 -34.3891 -77.547485 -76.810196z" fill-rule="evenodd"></path><path fill="#704c5e" d="m707.9383 137.95416l0 0c0 -32.166588 26.272034 -58.242752 58.680237 -58.242752l0 0c15.562988 0 30.488525 6.1362686 41.493225 17.058907c11.0047 10.922638 17.187012 25.736908 17.187012 41.183846l0 0c0 32.16658 -26.272034 58.242752 -58.680237 58.242752l0 0c-32.408203 0 -58.680237 -26.076172 -58.680237 -58.242752z" fill-rule="evenodd"></path><path stroke="#704c5e" stroke-width="1.0" stroke-linejoin="round" stroke-linecap="butt" d="m707.9383 137.95416l0 0c0 -32.166588 26.272034 -58.242752 58.680237 -58.242752l0 0c15.562988 0 30.488525 6.1362686 41.493225 17.058907c11.0047 10.922638 17.187012 25.736908 17.187012 41.183846l0 0c0 32.16658 -26.272034 58.242752 -58.680237 58.242752l0 0c-32.408203 0 -58.680237 -26.076172 -58.680237 -58.242752z" fill-rule="evenodd"></path><defs><radialGradient id="p.6" gradientUnits="userSpaceOnUse" gradientTransform="matrix(8.169849590980169 0.0 0.0 8.169849590980169 0.0 0.0)" spreadMethod="pad" cx="93.835759704928" cy="16.886176259876827" fx="93.835759704928" fy="16.886176259876827" r="8.169849395751953"><stop offset="0.0" stop-color="#696969"></stop><stop offset="1.0" stop-color="#1d1d1d"></stop></radialGradient></defs><path fill="url(#p.6)" d="m719.3957 137.95752l0 0c0 -26.048706 21.144836 -47.16535 47.228333 -47.16535c26.083496 0 47.228394 21.116646 47.228394 47.16535c0 26.048706 -21.144897 47.16536 -47.228394 47.16536c-26.083496 0 -47.228333 -21.116653 -47.228333 -47.16536z" fill-rule="evenodd"></path><defs><radialGradient id="p.7" gradientUnits="userSpaceOnUse" gradientTransform="matrix(8.169849590980169 0.0 0.0 8.169849590980169 0.0 0.0)" spreadMethod="pad" cx="93.835759704928" cy="16.886176259876827" fx="93.835759704928" fy="16.886176259876827" r="8.169849395751953"><stop offset="0.0" stop-color="#696969"></stop><stop offset="1.0" stop-color="#1d1d1d"></stop></radialGradient></defs><path fill="url(#p.7)" d="m746.57385 123.851585c0 -2.7134094 2.2025757 -4.9130554 4.9196167 -4.9130554c2.717041 0 4.9196167 2.199646 4.9196167 4.9130554c0 2.7134094 -2.2025757 4.913063 -4.9196167 4.913063c-2.717041 0 -4.9196167 -2.1996536 -4.9196167 -4.913063m30.261108 0c0 -2.7134094 2.2026367 -4.9130554 4.9196167 -4.9130554c2.717041 0 4.9196777 2.199646 4.9196777 4.9130554c0 2.7134094 -2.2026367 4.913063 -4.9196777 4.913063c-2.71698 0 -4.9196167 -2.1996536 -4.9196167 -4.913063" fill-rule="evenodd"></path><path fill="#000000" fill-opacity="0.0" d="m741.02594 158.52664q25.598083 17.556839 51.136414 0" fill-rule="evenodd"></path><path fill="#000000" fill-opacity="0.0" d="m719.3957 137.95752l0 0c0 -26.048706 21.144836 -47.16535 47.228333 -47.16535c26.083496 0 47.228394 21.116646 47.228394 47.16535c0 26.048706 -21.144897 47.16536 -47.228394 47.16536c-26.083496 0 -47.228333 -21.116653 -47.228333 -47.16536z" fill-rule="evenodd"></path><path fill="#000000" fill-opacity="0.2" d="m746.57385 123.851585c0 -2.7134094 2.2025757 -4.9130554 4.9196167 -4.9130554c2.717041 0 4.9196167 2.199646 4.9196167 4.9130554c0 2.7134094 -2.2025757 4.913063 -4.9196167 4.913063c-2.717041 0 -4.9196167 -2.1996536 -4.9196167 -4.913063m30.261108 0c0 -2.7134094 2.2026367 -4.9130554 4.9196167 -4.9130554c2.717041 0 4.9196777 2.199646 4.9196777 4.9130554c0 2.7134094 -2.2026367 4.913063 -4.9196777 4.913063c-2.71698 0 -4.9196167 -2.1996536 -4.9196167 -4.913063" fill-rule="evenodd"></path><path stroke="#000000" stroke-width="1.0" stroke-linejoin="round" stroke-linecap="butt" d="m746.57385 123.851585c0 -2.7134094 2.2025757 -4.9130554 4.9196167 -4.9130554c2.717041 0 4.9196167 2.199646 4.9196167 4.9130554c0 2.7134094 -2.2025757 4.913063 -4.9196167 4.913063c-2.717041 0 -4.9196167 -2.1996536 -4.9196167 -4.913063m30.261108 0c0 -2.7134094 2.2026367 -4.9130554 4.9196167 -4.9130554c2.717041 0 4.9196777 2.199646 4.9196777 4.9130554c0 2.7134094 -2.2026367 4.913063 -4.9196777 4.913063c-2.71698 0 -4.9196167 -2.1996536 -4.9196167 -4.913063" fill-rule="evenodd"></path><path stroke="#000000" stroke-width="1.0" stroke-linejoin="round" stroke-linecap="butt" d="m741.02594 158.52664q25.598083 17.556839 51.136414 0" fill-rule="evenodd"></path><path stroke="#000000" stroke-width="1.0" stroke-linejoin="round" stroke-linecap="butt" d="m719.3957 137.95752l0 0c0 -26.048706 21.144836 -47.16535 47.228333 -47.16535c26.083496 0 47.228394 21.116646 47.228394 47.16535c0 26.048706 -21.144897 47.16536 -47.228394 47.16536c-26.083496 0 -47.228333 -21.116653 -47.228333 -47.16536z" fill-rule="evenodd"></path><path fill="#efefef" d="m775.56085 96.19304l13.802002 -3.0639572l2.9638062 -14.268387l2.9638062 14.268387l13.802002 3.0639572l-13.802002 3.0639496l-2.9638062 14.268387l-2.9638062 -14.268387z" fill-rule="evenodd"></path><path stroke="#d9d9d9" stroke-width="1.0" stroke-linejoin="round" stroke-linecap="butt" d="m775.56085 96.19304l13.802002 -3.0639572l2.9638062 -14.268387l2.9638062 14.268387l13.802002 3.0639572l-13.802002 3.0639496l-2.9638062 14.268387l-2.9638062 -14.268387z" fill-rule="evenodd"></path><path fill="#efefef" d="m803.20636 117.63457l8.403503 -2.1326675l1.8045044 -9.931488l1.8045654 9.931488l8.403442 2.1326675l-8.403442 2.13266l-1.8045654 9.931488l-1.8045044 -9.931488z" fill-rule="evenodd"></path><path stroke="#d9d9d9" stroke-width="1.0" stroke-linejoin="round" stroke-linecap="butt" d="m803.20636 117.63457l8.403503 -2.1326675l1.8045044 -9.931488l1.8045654 9.931488l8.403442 2.1326675l-8.403442 2.13266l-1.8045654 9.931488l-1.8045044 -9.931488z" fill-rule="evenodd"></path><path fill="#f4fec1" d="m175.4986 -0.005249344l-52.887543 0l0 366.876l52.887543 0z" fill-rule="evenodd"></path><path fill="#c3dac3" d="m228.38614 -0.005249344l-52.887543 0l0 366.876l52.887543 0z" fill-rule="evenodd"></path><path fill="#63c7b2" d="m281.27368 -0.005249344l-52.887543 0l0 366.876l52.887543 0z" fill-rule="evenodd"></path><path fill="#e15a97" d="m122.61105 -0.005249344l-52.88755 0l0 366.876l52.88755 0z" fill-rule="evenodd"></path><path fill="#704c5e" d="m86.63085 333.24933l178.33011 0l0 0c23.361725 0 42.30014 19.505035 42.30014 43.565674c0 24.060669 -18.938416 43.565674 -42.30014 43.565674l-178.33011 0l0 0c-23.361725 0 -42.300144 -19.505005 -42.300144 -43.565674c0 -24.060638 18.93842 -43.565674 42.300144 -43.565674z" fill-rule="evenodd"></path><path stroke="#704c5e" stroke-width="1.0" stroke-linejoin="round" stroke-linecap="butt" d="m86.63085 333.24933l178.33011 0l0 0c23.361725 0 42.30014 19.505035 42.30014 43.565674c0 24.060669 -18.938416 43.565674 -42.30014 43.565674l-178.33011 0l0 0c-23.361725 0 -42.300144 -19.505005 -42.300144 -43.565674c0 -24.060638 18.93842 -43.565674 42.300144 -43.565674z" fill-rule="evenodd"></path><defs><radialGradient id="p.8" gradientUnits="userSpaceOnUse" gradientTransform="matrix(18.424796270735538 0.0 0.0 18.424796270735538 0.0 0.0)" spreadMethod="pad" cx="26.715538083778366" cy="27.794194013320325" fx="26.715538083778366" fy="27.794194013320325" r="18.42479705810547"><stop offset="0.0" stop-color="#dddddd"></stop><stop offset="1.0" stop-color="#919191"></stop></radialGradient></defs><path fill="url(#p.8)" d="m247.64568 512.10236l0 0c0 -130.0174 109.5034 -235.41733 244.58266 -235.41733l0 0c64.86737 0 127.07794 24.802826 172.9461 68.95215c45.868103 44.149323 71.6366 104.028625 71.6366 166.46518l0 0c0 130.0174 -109.50342 235.41736 -244.5827 235.41736l0 0c-135.07925 0 -244.58266 -105.39996 -244.58266 -235.41736z" fill-rule="evenodd"></path><path stroke="#999999" stroke-width="1.0" stroke-linejoin="round" stroke-linecap="butt" d="m247.64568 512.10236l0 0c0 -130.0174 109.5034 -235.41733 244.58266 -235.41733l0 0c64.86737 0 127.07794 24.802826 172.9461 68.95215c45.868103 44.149323 71.6366 104.028625 71.6366 166.46518l0 0c0 130.0174 -109.50342 235.41736 -244.5827 235.41736l0 0c-135.07925 0 -244.58266 -105.39996 -244.58266 -235.41736z" fill-rule="evenodd"></path><defs><radialGradient id="p.9" gradientUnits="userSpaceOnUse" gradientTransform="matrix(17.208438391384583 0.0 0.0 17.208438391384583 0.0 0.0)" spreadMethod="pad" cx="28.603893930499087" cy="29.758945886282522" fx="28.603893930499087" fy="29.758945886282522" r="17.208438873291016"><stop offset="0.0" stop-color="#8c8c8c"></stop><stop offset="1.0" stop-color="#404040"></stop></radialGradient></defs><path fill="url(#p.9)" d="m280.1181 512.105l0 0c0 -114.12726 94.965 -206.64566 212.11023 -206.64566l0 0c56.255127 0 110.20624 21.771545 149.98462 60.525116c39.77838 38.75357 62.12561 91.3147 62.12561 146.12054l0 0c0 114.12726 -94.964966 206.64569 -212.11023 206.64569l0 0c-117.14523 0 -212.11023 -92.51843 -212.11023 -206.64569z" fill-rule="evenodd"></path><path stroke="#434343" stroke-width="1.0" stroke-linejoin="round" stroke-linecap="butt" d="m280.1181 512.105l0 0c0 -114.12726 94.965 -206.64566 212.11023 -206.64566l0 0c56.255127 0 110.20624 21.771545 149.98462 60.525116c39.77838 38.75357 62.12561 91.3147 62.12561 146.12054l0 0c0 114.12726 -94.964966 206.64569 -212.11023 206.64569l0 0c-117.14523 0 -212.11023 -92.51843 -212.11023 -206.64569z" fill-rule="evenodd"></path><path fill="#704c5e" d="m331.7244 512.10236l0 0c0 -86.53909 71.86008 -156.6929 160.50394 -156.6929l0 0c42.5683 0 83.39313 16.508667 113.49341 45.894287c30.100342 29.38562 47.01056 69.24109 47.01056 110.798615l0 0c0 86.53912 -71.86005 156.69293 -160.50397 156.69293l0 0c-88.64386 0 -160.50394 -70.15381 -160.50394 -156.69293z" fill-rule="evenodd"></path><path stroke="#704c5e" stroke-width="1.0" stroke-linejoin="round" stroke-linecap="butt" d="m331.7244 512.10236l0 0c0 -86.53909 71.86008 -156.6929 160.50394 -156.6929l0 0c42.5683 0 83.39313 16.508667 113.49341 45.894287c30.100342 29.38562 47.01056 69.24109 47.01056 110.798615l0 0c0 86.53912 -71.86005 156.69293 -160.50397 156.69293l0 0c-88.64386 0 -160.50394 -70.15381 -160.50394 -156.69293z" fill-rule="evenodd"></path><defs><radialGradient id="p.10" gradientUnits="userSpaceOnUse" gradientTransform="matrix(13.455851397954424 0.0 0.0 13.455851397954424 0.0 0.0)" spreadMethod="pad" cx="36.58098858995441" cy="38.057968021449376" fx="36.58098858995441" fy="38.057968021449376" r="13.455851554870605"><stop offset="0.0" stop-color="#696969"></stop><stop offset="1.0" stop-color="#1d1d1d"></stop></radialGradient></defs><path fill="url(#p.10)" d="m363.063 512.10236l0 0c0 -70.07492 57.829315 -126.8819 129.16534 -126.8819c71.33606 0 129.16534 56.806976 129.16534 126.8819c0 70.07495 -57.829285 126.8819 -129.16534 126.8819c-71.33603 0 -129.16534 -56.806946 -129.16534 -126.8819z" fill-rule="evenodd"></path><defs><radialGradient id="p.11" gradientUnits="userSpaceOnUse" gradientTransform="matrix(13.455851397954424 0.0 0.0 13.455851397954424 0.0 0.0)" spreadMethod="pad" cx="36.58098858995441" cy="38.057968021449376" fx="36.58098858995441" fy="38.057968021449376" r="13.455851554870605"><stop offset="0.0" stop-color="#696969"></stop><stop offset="1.0" stop-color="#1d1d1d"></stop></radialGradient></defs><path fill="url(#p.11)" d="m437.39288 474.15527c0 -7.299469 6.0238647 -13.216858 13.454712 -13.216858c7.430847 0 13.454712 5.917389 13.454712 13.216858c0 7.299469 -6.0238647 13.216858 -13.454712 13.216858c-7.430847 0 -13.454712 -5.917389 -13.454712 -13.216858m82.761475 0c0 -7.299469 6.023926 -13.216858 13.454712 -13.216858c7.430847 0 13.454773 5.917389 13.454773 13.216858c0 7.299469 -6.023926 13.216858 -13.454773 13.216858c-7.430786 0 -13.454712 -5.917389 -13.454712 -13.216858" fill-rule="evenodd"></path><path fill="#000000" fill-opacity="0.0" d="m422.21988 567.4364q70.00845 47.23053 139.85342 0" fill-rule="evenodd"></path><path fill="#000000" fill-opacity="0.0" d="m363.063 512.10236l0 0c0 -70.07492 57.829315 -126.8819 129.16534 -126.8819c71.33606 0 129.16534 56.806976 129.16534 126.8819c0 70.07495 -57.829285 126.8819 -129.16534 126.8819c-71.33603 0 -129.16534 -56.806946 -129.16534 -126.8819z" fill-rule="evenodd"></path><path fill="#000000" fill-opacity="0.2" d="m437.39288 474.15527c0 -7.299469 6.0238647 -13.216858 13.454712 -13.216858c7.430847 0 13.454712 5.917389 13.454712 13.216858c0 7.299469 -6.0238647 13.216858 -13.454712 13.216858c-7.430847 0 -13.454712 -5.917389 -13.454712 -13.216858m82.761475 0c0 -7.299469 6.023926 -13.216858 13.454712 -13.216858c7.430847 0 13.454773 5.917389 13.454773 13.216858c0 7.299469 -6.023926 13.216858 -13.454773 13.216858c-7.430786 0 -13.454712 -5.917389 -13.454712 -13.216858" fill-rule="evenodd"></path><path stroke="#000000" stroke-width="1.0" stroke-linejoin="round" stroke-linecap="butt" d="m437.39288 474.15527c0 -7.299469 6.0238647 -13.216858 13.454712 -13.216858c7.430847 0 13.454712 5.917389 13.454712 13.216858c0 7.299469 -6.0238647 13.216858 -13.454712 13.216858c-7.430847 0 -13.454712 -5.917389 -13.454712 -13.216858m82.761475 0c0 -7.299469 6.023926 -13.216858 13.454712 -13.216858c7.430847 0 13.454773 5.917389 13.454773 13.216858c0 7.299469 -6.023926 13.216858 -13.454773 13.216858c-7.430786 0 -13.454712 -5.917389 -13.454712 -13.216858" fill-rule="evenodd"></path><path stroke="#000000" stroke-width="1.0" stroke-linejoin="round" stroke-linecap="butt" d="m422.21988 567.4364q70.00845 47.23053 139.85342 0" fill-rule="evenodd"></path><path stroke="#000000" stroke-width="1.0" stroke-linejoin="round" stroke-linecap="butt" d="m363.063 512.10236l0 0c0 -70.07492 57.829315 -126.8819 129.16534 -126.8819c71.33606 0 129.16534 56.806976 129.16534 126.8819c0 70.07495 -57.829285 126.8819 -129.16534 126.8819c-71.33603 0 -129.16534 -56.806946 -129.16534 -126.8819z" fill-rule="evenodd"></path><path fill="#efefef" d="m516.6877 399.75067l37.751587 -8.243103l8.106689 -38.38684l8.106628 38.38684l37.751587 8.243103l-37.751587 8.2430725l-8.106628 38.38684l-8.106689 -38.38684z" fill-rule="evenodd"></path><path stroke="#d9d9d9" stroke-width="1.0" stroke-linejoin="round" stroke-linecap="butt" d="m516.6877 399.75067l37.751587 -8.243103l8.106689 -38.38684l8.106628 38.38684l37.751587 8.243103l-37.751587 8.2430725l-8.106628 38.38684l-8.106689 -38.38684z" fill-rule="evenodd"></path><path fill="#efefef" d="m592.30444 457.4357l22.985474 -5.7375793l4.935791 -26.719116l4.935852 26.719116l22.985413 5.7375793l-22.985413 5.7375793l-4.935852 26.719116l-4.935791 -26.719116z" fill-rule="evenodd"></path><path stroke="#d9d9d9" stroke-width="1.0" stroke-linejoin="round" stroke-linecap="butt" d="m592.30444 457.4357l22.985474 -5.7375793l4.935791 -26.719116l4.935852 26.719116l22.985413 5.7375793l-22.985413 5.7375793l-4.935852 26.719116l-4.935791 -26.719116z" fill-rule="evenodd"></path></g></svg>

